<svg id="Layer_1" enable-background="new 0 0 496 496" height="512" viewBox="0 0 496 496" width="512" xmlns="http://www.w3.org/2000/svg"><path d="m138.5 131v14c0 22.06-17.94 40-40 40h-30c-22.06 0-40-17.94-40-40v-14c0-22.06 17.94-40 40-40h30c22.06 0 40 17.94 40 40zm-40 180h-30c-22.06 0-40 17.94-40 40v14c0 22.06 17.94 40 40 40h30c22.06 0 40-17.94 40-40v-14c0-22.06-17.94-40-40-40zm369-263v400c0 26.51-21.49 48-48 48h-304c-26.51 0-48-21.49-48-48v-12.33c0-8.837 7.164-16 16-16h19.68c28.99 0 52.49-23.501 52.49-52.49v-18.36c0-28.99-23.5-52.49-52.49-52.49h-19.68c-8.836 0-16-7.163-16-16v-64.66c0-8.837 7.164-16 16-16h19.68c28.99 0 52.49-23.501 52.49-52.49v-18.36c0-28.99-23.5-52.49-52.49-52.49h-19.68c-8.836 0-16-7.163-16-16v-12.33c0-26.51 21.49-48 48-48h304c26.51 0 48 21.49 48 48zm-234.533 134.489c0 38.76 31.533 70.293 70.293 70.293s70.293-31.533 70.293-70.293-31.533-70.293-70.293-70.293-70.293 31.533-70.293 70.293zm179.033 143.851c0-17.11-10.09-32.67-25.71-39.65-39.374-17.578-38.344-17.64-42.92-17.64h-80.74c-4.544 0-3.461.024-42.92 17.64-15.62 6.98-25.71 22.54-25.71 39.65v31.46c0 8.84 7.16 16 16 16h186c8.84 0 16-7.16 16-16z"/></svg>